<svg xmlns="http://www.w3.org/2000/svg" viewBox="0 0 72 58">
  <!-- Platform base -->
  <rect x="2" y="50" width="68" height="7" rx="2" fill="currentColor" opacity="0.7"/>

  <!-- Building body -->
  <rect x="14" y="22" width="44" height="32" fill="currentColor" opacity="0.6"/>

  <!-- Windows -->
  <rect x="18" y="28" width="9" height="9" rx="1" fill="currentColor" opacity="0.2"/>
  <rect x="45" y="28" width="9" height="9" rx="1" fill="currentColor" opacity="0.2"/>

  <!-- Door -->
  <rect x="29" y="36" width="14" height="16" rx="1" fill="currentColor" opacity="0.85"/>
  <path d="M29,36 Q36,28 43,36" fill="currentColor" opacity="0.75"/>

  <!-- Chimney -->
  <rect x="49" y="8" width="7" height="18" fill="currentColor" opacity="0.9"/>
  <rect x="47" y="6" width="11" height="5" rx="1" fill="currentColor"/>
  <!-- Chimney smoke -->
  <circle cx="53" cy="3" r="3.5" fill="currentColor" opacity="0.2"/>
  <circle cx="58" cy="1" r="2.5" fill="currentColor" opacity="0.13"/>

  <!-- Main roof -->
  <polygon points="2,24 36,4 70,24" fill="currentColor"/>

  <!-- Platform canopy roof -->
  <rect x="1" y="42" width="70" height="7" rx="2" fill="currentColor" opacity="0.9"/>

  <!-- Canopy support posts -->
  <rect x="7" y="42" width="3" height="12" fill="currentColor" opacity="0.8"/>
  <rect x="34" y="42" width="3" height="12" fill="currentColor" opacity="0.8"/>
  <rect x="62" y="42" width="3" height="12" fill="currentColor" opacity="0.8"/>

  <!-- Station sign -->
  <rect x="20" y="12" width="32" height="9" rx="1" fill="currentColor" opacity="0.3"/>
  <line x1="24" y1="17" x2="48" y2="17" stroke="currentColor" stroke-width="1.5" opacity="0.5"/>
</svg>
