<svg xmlns="http://www.w3.org/2000/svg" viewBox="0 0 64 72">
  <!-- Tank body -->
  <path d="M13,8 Q13,3 32,3 Q51,3 51,8 L55,33 Q55,42 32,42 Q9,42 9,33 Z" fill="currentColor" opacity="0.85"/>

  <!-- Tank bands -->
  <ellipse cx="32" cy="33" rx="23" ry="5" fill="currentColor" opacity="0.6"/>
  <path d="M10,20 Q10,18 32,18 Q54,18 54,20" stroke="currentColor" stroke-width="2.5" fill="none" opacity="0.5"/>
  <path d="M12,28 Q12,26 32,26 Q52,26 52,28" stroke="currentColor" stroke-width="2" fill="none" opacity="0.4"/>

  <!-- Tank top cap -->
  <ellipse cx="32" cy="8" rx="19" ry="5" fill="currentColor"/>

  <!-- Legs -->
  <line x1="20" y1="40" x2="14" y2="67" stroke="currentColor" stroke-width="5" stroke-linecap="round" opacity="0.9"/>
  <line x1="32" y1="42" x2="32" y2="67" stroke="currentColor" stroke-width="5" stroke-linecap="round" opacity="0.9"/>
  <line x1="44" y1="40" x2="50" y2="67" stroke="currentColor" stroke-width="5" stroke-linecap="round" opacity="0.9"/>

  <!-- Cross bracing -->
  <line x1="17" y1="48" x2="47" y2="61" stroke="currentColor" stroke-width="2.5" opacity="0.6"/>
  <line x1="47" y1="48" x2="17" y2="61" stroke="currentColor" stroke-width="2.5" opacity="0.6"/>

  <!-- Base platform -->
  <rect x="10" y="67" width="44" height="5" rx="2" fill="currentColor"/>

  <!-- Boom arm -->
  <line x1="30" y1="18" x2="62" y2="10" stroke="currentColor" stroke-width="4" stroke-linecap="round"/>

  <!-- Pivot cap -->
  <circle cx="30" cy="18" r="4" fill="currentColor" opacity="0.7"/>

  <!-- Spout pipe -->
  <line x1="62" y1="10" x2="62" y2="32" stroke="currentColor" stroke-width="3.5" stroke-linecap="round"/>

  <!-- Spout curved end -->
  <path d="M58,30 Q62,36 66,30" stroke="currentColor" stroke-width="2.5" fill="none" stroke-linecap="round"/>

  <!-- Water drop -->
  <ellipse cx="62" cy="39" rx="3" ry="4" fill="currentColor" opacity="0.4"/>
</svg>
