<svg xmlns="http://www.w3.org/2000/svg" viewBox="0 0 64 56">
  <!-- Steam puffs -->
  <circle cx="16" cy="6" r="5" fill="currentColor" opacity="0.25"/>
  <circle cx="24" cy="3" r="3.5" fill="currentColor" opacity="0.18"/>
  <circle cx="30" cy="5" r="2.5" fill="currentColor" opacity="0.12"/>

  <!-- Smokestack (tall, flared cap) -->
  <rect x="12" y="11" width="8" height="17" fill="currentColor" opacity="0.9"/>
  <rect x="9" y="8" width="14" height="6" rx="2" fill="currentColor"/>

  <!-- Boiler -->
  <rect x="8" y="24" width="44" height="16" rx="9" fill="currentColor" opacity="0.8"/>

  <!-- Steam dome -->
  <ellipse cx="30" cy="23" rx="7" ry="5" fill="currentColor" opacity="0.85"/>

  <!-- Bell -->
  <circle cx="42" cy="23" r="3.5" fill="currentColor"/>

  <!-- Cab body -->
  <rect x="48" y="16" width="13" height="24" rx="1" fill="currentColor" opacity="0.9"/>
  <!-- Cab roof -->
  <rect x="46" y="13" width="17" height="5" rx="1" fill="currentColor"/>
  <!-- Cab window (cutout effect) -->
  <rect x="51" y="20" width="5" height="8" rx="1" fill="currentColor" opacity="0.2"/>

  <!-- Running board / frame -->
  <rect x="6" y="38" width="54" height="3" fill="currentColor"/>

  <!-- Cowcatcher -->
  <polygon points="4,41 10,41 7,51" fill="currentColor" opacity="0.85"/>

  <!-- Drive wheel 1 -->
  <circle cx="21" cy="47" r="8" fill="currentColor"/>
  <circle cx="21" cy="47" r="3" fill="currentColor" opacity="0.3"/>

  <!-- Drive wheel 2 -->
  <circle cx="38" cy="47" r="8" fill="currentColor"/>
  <circle cx="38" cy="47" r="3" fill="currentColor" opacity="0.3"/>

  <!-- Front pilot wheel -->
  <circle cx="8" cy="49" r="5" fill="currentColor"/>
  <circle cx="8" cy="49" r="1.8" fill="currentColor" opacity="0.3"/>

  <!-- Rear trailing wheel -->
  <circle cx="55" cy="49" r="5" fill="currentColor"/>
  <circle cx="55" cy="49" r="1.8" fill="currentColor" opacity="0.3"/>

  <!-- Connecting rod -->
  <rect x="17" y="45" width="26" height="3" rx="1.5" fill="currentColor" opacity="0.6"/>

  <!-- Headlight -->
  <circle cx="7" cy="32" r="3.5" fill="currentColor" opacity="0.5"/>
</svg>
